<svg width="125" height="72" viewBox="0 0 125 72" fill="none" xmlns="http://www.w3.org/2000/svg">
<g clip-path="url(#clip0_94_29104)">
<g clip-path="url(#clip1_94_29104)">
<path fill-rule="evenodd" clip-rule="evenodd" d="M10.1762 24.7597C9.76537 24.8025 9.33417 24.741 8.91786 24.5532L5.13915 22.8491C2.63074 25.4282 0.86267 28.7311 0.178047 32.4147C-0.0335429 33.5531 0.891177 34.5382 2.04912 34.5396L11.0831 34.5503C12.0224 34.5514 12.8052 33.8768 13.2468 33.0478C13.2872 32.972 13.3292 32.8971 13.3727 32.8233C13.8494 32.015 14.0141 30.9962 13.5222 30.197L10.1762 24.7597ZM12.2203 23.1918L15.7036 28.8521C16.1955 29.6515 17.1797 29.9641 18.1164 29.9045C18.2432 29.8964 18.3711 29.8923 18.5 29.8923L18.5506 29.8925C19.4888 29.9003 20.4533 29.5324 20.8994 28.707L25.1973 20.7559C25.748 19.737 25.3223 18.4544 24.2198 18.0993C22.4175 17.5187 20.4954 17.2051 18.5 17.2051C16.4006 17.2051 14.3822 17.5522 12.4991 18.1923L12.3779 22.3882C12.3696 22.6743 12.3142 22.944 12.2203 23.1918ZM34.9513 37.1412C36.1092 37.1425 37.0339 38.1275 36.8225 39.2659C36.0627 43.3565 33.9669 46.9778 31.0048 49.6599C30.1454 50.4381 28.8201 50.1664 28.2124 49.179L23.4773 41.4845C22.9855 40.6852 23.1502 39.6663 23.627 38.858C23.6706 38.784 23.7127 38.709 23.7532 38.6331C24.1948 37.804 24.9775 37.1294 25.9168 37.1305L34.9513 37.1412ZM26.0332 50.5272C26.6401 51.5135 26.2872 52.8177 25.2068 53.2345C23.1257 54.0375 20.8643 54.4778 18.5 54.4778C16.5043 54.4778 14.5819 54.1641 12.7794 53.5834C11.677 53.2282 11.2513 51.9456 11.802 50.9267L16.1008 42.9739C16.5469 42.1486 17.5114 41.7806 18.4495 41.7884L18.5 41.7886C18.6287 41.7886 18.7564 41.7846 18.8831 41.7765C19.8198 41.7169 20.8038 42.0296 21.2957 42.8289L26.0332 50.5272ZM9.55039 49.7032C8.99906 50.7232 7.69094 51.0688 6.78941 50.3397C3.39782 47.5968 0.988042 43.6879 0.169654 39.2227C-0.0390851 38.0839 0.887918 37.1008 2.04578 37.1022L11.08 37.1129C12.0193 37.114 12.8005 37.7906 13.2401 38.6206C13.335 38.7997 13.4387 38.9733 13.5507 39.1409C14.072 39.9211 14.2932 40.9288 13.8471 41.7542L9.55039 49.7032ZM34.9539 34.5786C36.1119 34.58 37.0389 33.5968 36.83 32.4578C36.0111 27.9933 33.6013 24.0851 30.21 21.3426C29.3084 20.6136 28.0004 20.9592 27.449 21.9792L23.153 29.927C22.7069 30.7523 22.9281 31.7601 23.4493 32.5402C23.5613 32.7077 23.6649 32.8812 23.7597 33.0602C24.1994 33.8902 24.9805 34.5668 25.9198 34.5679L34.9539 34.5786Z" fill="#FF0012"/>
<path fill-rule="evenodd" clip-rule="evenodd" d="M10.0184 24.9087C9.68245 24.9097 9.3378 24.8404 9.00279 24.6893L0.411332 20.8146C-1.37443 20.0092 -1.542 17.5386 0.118671 16.4995L8.98233 10.9534C9.36912 10.7113 9.78237 10.5925 10.1881 10.5773C9.78243 10.5925 9.36923 10.7114 8.9825 10.9534L0.118839 16.4995C-1.54183 17.5386 -1.37426 20.0092 0.411501 20.8146L9.00295 24.6893C9.33791 24.8403 9.6825 24.9096 10.0184 24.9087ZM3.30419 19.4286C2.49873 19.0653 2.42315 17.951 3.17218 17.4823L8.53117 14.1291C9.28021 13.6604 10.2493 14.2156 10.2238 15.0988L10.0592 20.7947C10.0364 21.5838 9.21822 22.0957 8.4986 21.7712L3.30419 19.4286Z" fill="#FF0012"/>
<circle cx="18.5" cy="35.8413" r="3.311" fill="#FF0012"/>
<path d="M47 32.4554V52.0708H50.1868V32.4554H47Z" fill="white"/>
<path d="M58.5868 52.0708C62.6131 52.0708 65.5868 49.0433 65.5868 44.5846C65.5868 40.1258 62.6131 37.0708 58.5868 37.0708C54.5605 37.0708 51.5868 40.1258 51.5868 44.5846C51.5868 49.0433 54.5605 52.0708 58.5868 52.0708ZM58.5868 49.4836C56.3237 49.4836 54.6394 47.4469 54.6394 44.5846C54.6394 41.6947 56.35 39.6855 58.5868 39.6855C60.85 39.6855 62.5342 41.6947 62.5342 44.5846C62.5342 47.4469 60.85 49.4836 58.5868 49.4836Z" fill="white"/>
<path d="M75.9868 39.676V37.0635H72.9159V32.0708H72.7942L69.4192 33.6963V37.0635H66.9868V39.676H69.4192V47.3103C69.4192 49.9518 70.5442 52.0708 73.9801 52.0708H75.6524V49.4873H74.7098C73.3719 49.4873 72.9159 48.4133 72.9159 46.9039V39.676H75.9868Z" fill="white"/>
<path d="M86.3868 39.676V37.0635H83.3159V32.0708H83.1942L79.8192 33.6963V37.0635H77.3868V39.676H79.8192V47.3103C79.8192 49.9518 80.9442 52.0708 84.3801 52.0708H86.0523V49.4873H85.1098C83.7719 49.4873 83.3159 48.4133 83.3159 46.9039V39.676H86.3868Z" fill="white"/>
<path d="M101.787 44.8323C101.759 40.8139 99.7829 37.0708 94.9515 37.0708C90.8064 37.0708 87.7868 40.2084 87.7868 44.5295C87.7868 49.0158 90.6966 52.0708 94.9515 52.0708C98.3005 52.0708 100.744 50.3644 101.595 47.4745H98.4378C97.9162 48.9057 96.5711 49.5112 94.9515 49.5112C92.728 49.5112 91.0809 48.0249 90.8613 45.4378H101.787V44.8323ZM90.9162 43.1258C91.2456 40.9515 92.728 39.5479 94.9241 39.5479C97.1201 39.5479 98.4103 40.8965 98.6299 43.1258H90.9162Z" fill="white"/>
<path d="M110.187 40.3725V37.0708C108.045 37.1847 106.739 38.4939 106.217 40.4864H106.164V37.3554H103.187V52.0708H106.217V45.0974C106.217 42.1941 107.627 40.401 110.187 40.3725Z" fill="white"/>
<path d="M111.587 37.0708H114.668L118.204 47.9148L121.894 37.0708H124.895L120.113 50.7005L119.254 53.1787C118.937 54.0092 118.634 54.6433 118.343 55.0809C118.061 55.5185 117.732 55.8713 117.356 56.1392C116.989 56.416 116.531 56.6304 115.984 56.7822C115.092 57.0338 113.501 56.844 112.587 56.6357L112.459 54.1419C113.151 54.4214 113.79 54.4689 114.243 54.4689C115.081 54.4689 115.583 54.1953 115.984 53.6773C116.386 53.1683 116.566 52.6886 116.78 51.8938L111.587 37.0708Z" fill="white"/>
<path d="M77.6921 24.0952C77.6921 24.9367 77.5345 25.6574 77.2193 26.2574C76.9066 26.8548 76.4795 27.3124 75.938 27.6302C75.399 27.948 74.7876 28.1069 74.1037 28.1069C73.4199 28.1069 72.8072 27.948 72.2657 27.6302C71.7267 27.3099 71.2996 26.851 70.9844 26.2536C70.6717 25.6536 70.5153 24.9341 70.5153 24.0952C70.5153 23.2537 70.6717 22.5342 70.9844 21.9368C71.2996 21.3368 71.7267 20.878 72.2657 20.5602C72.8072 20.2424 73.4199 20.0835 74.1037 20.0835C74.7876 20.0835 75.399 20.2424 75.938 20.5602C76.4795 20.878 76.9066 21.3368 77.2193 21.9368C77.5345 22.5342 77.6921 23.2537 77.6921 24.0952ZM76.2697 24.0952C76.2697 23.5028 76.177 23.0033 75.9914 22.5965C75.8083 22.1872 75.5541 21.8783 75.2287 21.6699C74.9033 21.4589 74.5283 21.3534 74.1037 21.3534C73.6792 21.3534 73.3042 21.4589 72.9788 21.6699C72.6534 21.8783 72.3979 22.1872 72.2123 22.5965C72.0293 23.0033 71.9377 23.5028 71.9377 24.0952C71.9377 24.6875 72.0293 25.1884 72.2123 25.5977C72.3979 26.0044 72.6534 26.3133 72.9788 26.5243C73.3042 26.7328 73.6792 26.837 74.1037 26.837C74.5283 26.837 74.9033 26.7328 75.2287 26.5243C75.5541 26.3133 75.8083 26.0044 75.9914 25.5977C76.177 25.1884 76.2697 24.6875 76.2697 24.0952Z" fill="white"/>
<path d="M61.0893 20.1903H62.8205L65.1391 25.8493H65.2306L67.5491 20.1903H69.2804V28.0001H67.9228V22.6347H67.8504L65.692 27.9772H64.6777L62.5193 22.6232H62.4468V28.0001H61.0893V20.1903Z" fill="white"/>
<path d="M54.6738 28.0001V20.1903H59.7533V21.3762H56.0886V23.4965H59.4901V24.6824H56.0886V26.8141H59.7838V28.0001H54.6738Z" fill="white"/>
<path d="M49.6465 28.0001H47V20.1903H49.6999C50.4753 20.1903 51.1413 20.3466 51.6981 20.6593C52.2574 20.9695 52.687 21.4156 52.987 21.9978C53.287 22.58 53.437 23.2766 53.437 24.0876C53.437 24.9011 53.2857 25.6002 52.9832 26.1849C52.6832 26.7696 52.2498 27.2183 51.6828 27.531C51.1185 27.8437 50.4397 28.0001 49.6465 28.0001ZM48.4148 26.776H49.5779C50.1219 26.776 50.5757 26.6768 50.9392 26.4785C51.3028 26.2777 51.5761 25.979 51.7591 25.5824C51.9422 25.1833 52.0337 24.685 52.0337 24.0876C52.0337 23.4901 51.9422 22.9944 51.7591 22.6003C51.5761 22.2037 51.3053 21.9076 50.9469 21.7118C50.5909 21.5135 50.1486 21.4144 49.6198 21.4144H48.4148V26.776Z" fill="white"/>
</g>
</g>
<defs>
<clipPath id="clip0_94_29104">
<rect width="125" height="72" fill="white"/>
</clipPath>
<clipPath id="clip1_94_29104">
<rect width="162" height="72" fill="white"/>
</clipPath>
</defs>
</svg>
