<?xml version="1.0" encoding="utf-8"?>
<!-- Generator: Adobe Illustrator 28.1.0, SVG Export Plug-In . SVG Version: 6.00 Build 0)  -->
<svg version="1.1" id="Layer_1" xmlns="http://www.w3.org/2000/svg" xmlns:xlink="http://www.w3.org/1999/xlink" x="0px" y="0px"
	 viewBox="0 0 60 60" style="enable-background:new 0 0 60 60;" xml:space="preserve">
<style type="text/css">
	.st0{fill:#0021A5;}
</style>
<path class="st0" d="M31.3,14c3.9,0,7-3.1,7-7c0-3.9-3.1-7-7-7c-3.9,0-7,3.1-7,7C24.2,10.9,27.4,14,31.3,14z"/>
<path class="st0" d="M31.2,60c2.3,0,4.2-1.9,4.2-4.2c0-2.3-1.9-4.2-4.2-4.2c-2.3,0-4.2,1.9-4.2,4.2C27,58.1,28.9,60,31.2,60z"/>
<path class="st0" d="M14,20.5c3.5,0,6.3-2.8,6.3-6.3S17.5,7.8,14,7.8c-3.5,0-6.3,2.8-6.3,6.3S10.5,20.5,14,20.5z"/>
<path class="st0" d="M48.5,52.2c1.9,0,3.5-1.6,3.5-3.5c0-1.9-1.6-3.5-3.5-3.5c-1.9,0-3.5,1.6-3.5,3.5C45,50.6,46.6,52.2,48.5,52.2z"
	/>
<path class="st0" d="M6.9,37c3.1,0,5.6-2.5,5.6-5.6s-2.5-5.6-5.6-5.6s-5.6,2.5-5.6,5.6S3.8,37,6.9,37z"/>
<path class="st0" d="M55.6,34.2c1.5,0,2.8-1.3,2.8-2.8c0-1.5-1.3-2.8-2.8-2.8c-1.5,0-2.8,1.3-2.8,2.8C52.8,33,54.1,34.2,55.6,34.2z"
	/>
<path class="st0" d="M10.5,45.2c-1.9,1.9-1.9,5,0,6.9c1.9,1.9,5,1.9,6.9,0c1.9-1.9,1.9-5,0-6.9C15.6,43.3,12.5,43.2,10.5,45.2z"/>
<path class="st0" d="M48.5,16.3c1.2,0,2.1-0.9,2.1-2.1s-0.9-2.1-2.1-2.1s-2.1,0.9-2.1,2.1S47.3,16.3,48.5,16.3z"/>
</svg>
