<svg width="162" height="72" viewBox="0 0 162 72" fill="none" xmlns="http://www.w3.org/2000/svg">
<g clip-path="url(#clip0_120_4415)">
<path d="M54.4118 25.4759H53.1283C52.8182 26.3102 52.1444 26.8663 50.893 26.8663C49.2674 26.8663 48.2941 25.5936 48.2941 24C48.2941 22.4064 49.2674 21.1337 50.893 21.1337C52.0588 21.1337 52.7219 21.6043 53.1283 22.5241H54.4118C53.9412 21.0374 52.8182 20.0428 50.893 20.0428C48.508 20.0428 47 21.754 47 24C47 26.2674 48.4973 27.9572 50.8824 27.9572C52.7968 27.9572 54.0588 26.8984 54.4118 25.4759Z" fill="white"/>
<path d="M59.6466 22.4385H60.9408C60.8445 20.7701 59.7322 20 58.1814 20C56.8017 20 55.4327 20.7273 55.4541 22.1925C55.4755 23.6898 56.7696 24.139 58.0317 24.4813C59.0049 24.7487 59.8605 24.9091 59.8605 25.7433C59.8605 26.5348 59.1119 26.9198 58.2563 26.9198C57.2616 26.9198 56.5343 26.3636 56.5023 25.3369H55.1761C55.2616 27.1551 56.5664 28 58.2563 28C59.6573 28 61.144 27.2941 61.144 25.7326C61.144 24.0963 59.7536 23.7754 58.4595 23.4225C57.4648 23.1551 56.7482 22.8663 56.7482 22.1818C56.7482 21.4011 57.4113 21.0802 58.16 21.0802C59.0798 21.0802 59.5504 21.5294 59.6466 22.4385Z" fill="white"/>
<path d="M64.9594 20.1818H62.2321V27.8182H63.5262V24.9519H64.9594C66.5316 24.9519 67.6653 23.9144 67.6653 22.5348C67.6653 21.1872 66.6171 20.1818 64.9594 20.1818ZM64.8524 23.8717H63.5262V21.262H64.8524C65.815 21.262 66.3712 21.6898 66.3712 22.5455C66.3712 23.4011 65.815 23.8717 64.8524 23.8717Z" fill="white"/>
<path d="M68.5381 27.8182H69.8322V24.8235H70.9659C71.8964 24.8235 72.1959 25.3369 72.4418 26.0428C72.6557 26.6631 72.7627 27.3583 73.1156 27.8182H74.506V27.7112C74.121 27.1979 74.0033 26.7273 73.7787 26.0321C73.5114 25.1444 73.2654 24.5775 72.613 24.3636C73.5114 24.139 74.1424 23.3369 74.1424 22.3529C74.1424 21.1016 73.1905 20.1818 71.4472 20.1818H68.5381V27.8182ZM69.8322 23.754V21.2406H71.3402C72.4312 21.2406 72.859 21.7754 72.859 22.4492C72.859 23.2406 72.3456 23.754 71.383 23.754H69.8322Z" fill="white"/>
<path d="M47 32.4556V52.071H50.1868V32.4556H47Z" fill="white"/>
<path d="M58.5868 52.0708C62.6131 52.0708 65.5868 49.0433 65.5868 44.5846C65.5868 40.1258 62.6131 37.0708 58.5868 37.0708C54.5605 37.0708 51.5868 40.1258 51.5868 44.5846C51.5868 49.0433 54.5605 52.0708 58.5868 52.0708ZM58.5868 49.4836C56.3236 49.4836 54.6394 47.4469 54.6394 44.5846C54.6394 41.6947 56.35 39.6855 58.5868 39.6855C60.8499 39.6855 62.5342 41.6947 62.5342 44.5846C62.5342 47.4469 60.8499 49.4836 58.5868 49.4836Z" fill="white"/>
<path d="M75.9868 39.676V37.0635H72.9159V32.0708H72.7942L69.4192 33.6963V37.0635H66.9868V39.676H69.4192V47.3103C69.4192 49.9518 70.5442 52.0708 73.9801 52.0708H75.6524V49.4873H74.7098C73.3719 49.4873 72.9159 48.4133 72.9159 46.9039V39.676H75.9868Z" fill="white"/>
<path d="M86.3868 39.676V37.0635H83.3159V32.0708H83.1943L79.8193 33.6963V37.0635H77.3868V39.676H79.8193V47.3103C79.8193 49.9518 80.9443 52.0708 84.3801 52.0708H86.0524V49.4873H85.1098C83.772 49.4873 83.3159 48.4133 83.3159 46.9039V39.676H86.3868Z" fill="white"/>
<path d="M101.787 44.8323C101.759 40.8139 99.7829 37.0708 94.9515 37.0708C90.8064 37.0708 87.7868 40.2084 87.7868 44.5295C87.7868 49.0158 90.6966 52.0708 94.9515 52.0708C98.3005 52.0708 100.744 50.3644 101.595 47.4745H98.4378C97.9162 48.9057 96.5711 49.5112 94.9515 49.5112C92.728 49.5112 91.0809 48.0249 90.8613 45.4378H101.787V44.8323ZM90.9162 43.1258C91.2456 40.9515 92.728 39.5479 94.9241 39.5479C97.1201 39.5479 98.4103 40.8965 98.6299 43.1258H90.9162Z" fill="white"/>
<path d="M110.187 40.3725V37.0708C108.045 37.1847 106.739 38.494 106.217 40.4864H106.164V37.3554H103.187V52.0708H106.217V45.0974C106.217 42.1941 107.627 40.401 110.187 40.3725Z" fill="white"/>
<path d="M111.587 37.0708H114.668L118.204 47.9148L121.894 37.0708H124.895L120.113 50.7005L119.254 53.1787C118.937 54.0092 118.634 54.6433 118.343 55.0809C118.061 55.5185 117.732 55.8713 117.356 56.1392C116.989 56.416 116.531 56.6304 115.984 56.7822C115.092 57.0338 113.501 56.844 112.587 56.6357L112.459 54.1419C113.151 54.4214 113.79 54.4689 114.243 54.4689C115.081 54.4689 115.583 54.1953 115.984 53.6773C116.386 53.1683 116.566 52.6886 116.78 51.8938L111.587 37.0708Z" fill="white"/>
<path fill-rule="evenodd" clip-rule="evenodd" d="M10.1762 24.7597C9.76537 24.8025 9.33417 24.741 8.91786 24.5532L5.13915 22.8491C2.63074 25.4282 0.86267 28.7311 0.178047 32.4147C-0.0335429 33.5531 0.891177 34.5382 2.04912 34.5396L11.0831 34.5503C12.0224 34.5514 12.8052 33.8768 13.2468 33.0478C13.2872 32.972 13.3292 32.8971 13.3727 32.8233C13.8494 32.015 14.0141 30.9962 13.5222 30.197L10.1762 24.7597ZM12.2203 23.1918L15.7036 28.8521C16.1955 29.6515 17.1797 29.9641 18.1164 29.9045C18.2432 29.8964 18.3711 29.8923 18.5 29.8923L18.5506 29.8925C19.4888 29.9003 20.4533 29.5324 20.8994 28.707L25.1973 20.7559C25.748 19.737 25.3223 18.4544 24.2198 18.0993C22.4175 17.5187 20.4954 17.2051 18.5 17.2051C16.4006 17.2051 14.3822 17.5522 12.4991 18.1923L12.3779 22.3882C12.3696 22.6743 12.3142 22.944 12.2203 23.1918ZM34.9513 37.1412C36.1092 37.1425 37.0339 38.1275 36.8225 39.2659C36.0627 43.3565 33.9669 46.9778 31.0048 49.6599C30.1454 50.4381 28.8201 50.1664 28.2124 49.179L23.4773 41.4845C22.9855 40.6852 23.1502 39.6663 23.627 38.858C23.6706 38.784 23.7127 38.709 23.7532 38.6331C24.1948 37.804 24.9775 37.1294 25.9168 37.1305L34.9513 37.1412ZM26.0332 50.5272C26.6401 51.5135 26.2872 52.8177 25.2068 53.2345C23.1257 54.0375 20.8643 54.4778 18.5 54.4778C16.5043 54.4778 14.5819 54.1641 12.7794 53.5834C11.677 53.2282 11.2513 51.9456 11.802 50.9267L16.1008 42.9739C16.5469 42.1486 17.5114 41.7806 18.4495 41.7884L18.5 41.7886C18.6287 41.7886 18.7564 41.7846 18.8831 41.7765C19.8198 41.7169 20.8038 42.0296 21.2957 42.8289L26.0332 50.5272ZM9.55039 49.7032C8.99906 50.7232 7.69094 51.0688 6.78941 50.3397C3.39782 47.5968 0.988042 43.6879 0.169654 39.2227C-0.0390852 38.0839 0.887918 37.1008 2.04578 37.1022L11.08 37.1129C12.0193 37.114 12.8005 37.7906 13.2401 38.6206C13.335 38.7997 13.4387 38.9733 13.5507 39.1409C14.072 39.9211 14.2932 40.9288 13.8471 41.7542L9.55039 49.7032ZM34.9539 34.5786C36.1119 34.58 37.0389 33.5968 36.83 32.4578C36.0111 27.9933 33.6013 24.0851 30.21 21.3426C29.3084 20.6136 28.0004 20.9592 27.449 21.9792L23.153 29.927C22.7069 30.7523 22.9281 31.7601 23.4493 32.5402C23.5613 32.7077 23.6649 32.8812 23.7597 33.0602C24.1994 33.8902 24.9805 34.5668 25.9198 34.5679L34.9539 34.5786Z" fill="#FF0012"/>
<path fill-rule="evenodd" clip-rule="evenodd" d="M10.0184 24.9087C9.68245 24.9097 9.3378 24.8404 9.00279 24.6893L0.411332 20.8146C-1.37443 20.0092 -1.542 17.5386 0.118671 16.4995L8.98233 10.9534C9.36912 10.7113 9.78237 10.5925 10.1881 10.5773C9.78243 10.5925 9.36923 10.7114 8.9825 10.9534L0.118839 16.4995C-1.54183 17.5386 -1.37426 20.0092 0.411501 20.8146L9.00295 24.6893C9.33791 24.8403 9.6825 24.9096 10.0184 24.9087ZM3.30419 19.4286C2.49873 19.0653 2.42315 17.951 3.17218 17.4823L8.53117 14.1291C9.28021 13.6604 10.2493 14.2156 10.2238 15.0988L10.0592 20.7947C10.0364 21.5838 9.21822 22.0957 8.4986 21.7712L3.30419 19.4286Z" fill="#FF0012"/>
<circle cx="18.5" cy="35.8413" r="3.311" fill="#FF0012"/>
</g>
<defs>
<clipPath id="clip0_120_4415">
<rect width="162" height="72" fill="white"/>
</clipPath>
</defs>
</svg>
