<svg width="40" height="40" viewBox="0 0 40 40" fill="none" xmlns="http://www.w3.org/2000/svg">
<g id="mdi:connection">
<path id="Vector" d="M35.6666 12.5C36.9999 13.8334 36.9999 16 35.6666 17.1667L30.9999 21.8334L17.9999 8.83335L22.6666 4.16669C23.9999 2.83335 26.1666 2.83335 27.3333 4.16669L30.3333 7.16669L35.3333 2.16669L37.6666 4.50002L32.6666 9.50002L35.6666 12.5ZM25.9999 22.1667L23.6666 19.8334L18.9999 24.5L15.4999 21L20.1666 16.3334L17.8333 14L13.1666 18.6667L10.6666 16.3334L5.99992 21C4.66658 22.3334 4.66658 24.5 5.99992 25.6667L8.99992 28.6667L2.33325 35.3334L4.66659 37.6667L11.3333 31L14.3333 34C15.6666 35.3334 17.8333 35.3334 18.9999 34L23.6666 29.3334L21.3333 27L25.9999 22.1667Z" fill="#7490FF"/>
</g>
</svg>
