<svg width="16" height="16" viewBox="0 0 16 16" fill="none" xmlns="http://www.w3.org/2000/svg">
<g id="solar:cup-bold" clip-path="url(#clip0_296_4310)">
<path id="Vector" d="M15.1685 5.04267V5.095C15.1685 5.71149 15.1685 6.02045 15.0201 6.27278C14.8717 6.52511 14.6014 6.67494 14.0624 6.9753L13.4939 7.29071C13.8853 5.96597 14.0165 4.54231 14.0645 3.32509L14.0717 3.16667L14.0731 3.12939C14.5398 3.2914 14.8021 3.41255 14.9656 3.63907C15.1685 3.9208 15.1685 4.29499 15.1685 5.04267ZM0.831451 5.04267V5.095C0.831451 5.71149 0.831451 6.02045 0.979839 6.27278C1.12823 6.52511 1.39848 6.67494 1.93755 6.9753L2.50673 7.29071C2.11461 5.96597 1.98343 4.54231 1.9354 3.32509L1.92823 3.16667L1.92752 3.12939C1.46013 3.2914 1.19776 3.41255 1.03432 3.63907C0.831451 3.9208 0.831451 4.29571 0.831451 5.04267Z" fill="#0021A5"/>
<path id="Vector_2" fill-rule="evenodd" clip-rule="evenodd" d="M11.1377 0.873916C10.1005 0.70393 9.05101 0.620727 8.00003 0.625169C6.72188 0.625169 5.66811 0.737714 4.86237 0.873916C4.04588 1.01155 3.63799 1.08037 3.29677 1.50044C2.95627 1.92052 2.97419 2.37428 3.01003 3.28182C3.13405 6.39868 3.80645 10.2926 7.46239 10.6367L7.46239 13.17H6.43729C6.27163 13.1701 6.11112 13.2276 5.98305 13.3327C5.85498 13.4378 5.76725 13.584 5.73478 13.7464L5.59858 14.4245H3.69892C3.55633 14.4245 3.41958 14.4812 3.31876 14.582C3.21793 14.6828 3.16129 14.8196 3.16129 14.9622C3.16129 15.1048 3.21793 15.2415 3.31876 15.3423C3.41958 15.4432 3.55633 15.4998 3.69892 15.4998L12.3011 15.4998C12.4437 15.4998 12.5805 15.4432 12.6813 15.3423C12.7821 15.2415 12.8388 15.1048 12.8388 14.9622C12.8388 14.8196 12.7821 14.6828 12.6813 14.582C12.5805 14.4812 12.4437 14.4245 12.3011 14.4245H10.4015L10.2653 13.7464C10.2328 13.584 10.1451 13.4378 10.017 13.3327C9.88893 13.2276 9.72842 13.1701 9.56276 13.17H8.53766L8.53766 10.6367C12.1936 10.2926 12.8667 6.3994 12.99 3.28182C13.0259 2.37428 13.0445 1.9198 12.7033 1.50044C12.3621 1.08037 11.9542 1.01155 11.1377 0.873916Z" fill="#0021A5"/>
</g>
<defs>
<clipPath id="clip0_296_4310">
<rect width="16" height="16" fill="white"/>
</clipPath>
</defs>
</svg>
