<svg width="100" height="100" viewBox="0 0 100 100" fill="none" xmlns="http://www.w3.org/2000/svg">
<g id="Animation">
<g id="Group">
<g id="Group_2">
<path id="Vector" d="M51.2503 34.0357C55.1261 34.0357 58.2681 30.8937 58.2681 27.0178C58.2681 23.142 55.1261 20 51.2503 20C47.3744 20 44.2324 23.142 44.2324 27.0178C44.2324 30.8937 47.3744 34.0357 51.2503 34.0357Z" fill="#0021A5"/>
<path id="Vector_2" d="M51.2493 80.0001C53.5746 80.0001 55.4596 78.1151 55.4596 75.7898C55.4596 73.4646 53.5746 71.5796 51.2493 71.5796C48.9241 71.5796 47.0391 73.4646 47.0391 75.7898C47.0391 78.1151 48.9241 80.0001 51.2493 80.0001Z" fill="#0021A5"/>
<path id="Vector_3" d="M34.006 40.4752C37.4945 40.4752 40.3225 37.6472 40.3225 34.1587C40.3225 30.6702 37.4945 27.8422 34.006 27.8422C30.5174 27.8422 27.6895 30.6702 27.6895 34.1587C27.6895 37.6472 30.5174 40.4752 34.006 40.4752Z" fill="#0021A5"/>
<path id="Vector_4" d="M68.4933 72.1533C70.4312 72.1533 72.0022 70.5823 72.0022 68.6444C72.0022 66.7065 70.4312 65.1355 68.4933 65.1355C66.5554 65.1355 64.9844 66.7065 64.9844 68.6444C64.9844 70.5823 66.5554 72.1533 68.4933 72.1533Z" fill="#0021A5"/>
<path id="Vector_5" d="M26.8629 57.0178C29.9628 57.0178 32.4758 54.5048 32.4758 51.4049C32.4758 48.305 29.9628 45.792 26.8629 45.792C23.763 45.792 21.25 48.305 21.25 51.4049C21.25 54.5048 23.763 57.0178 26.8629 57.0178Z" fill="#0021A5"/>
<path id="Vector_6" d="M75.6354 54.2079C77.1847 54.2079 78.4407 52.9519 78.4407 51.4026C78.4407 49.8533 77.1847 48.5973 75.6354 48.5973C74.0861 48.5973 72.8301 49.8533 72.8301 51.4026C72.8301 52.9519 74.0861 54.2079 75.6354 54.2079Z" fill="#0021A5"/>
<path id="Vector_7" d="M30.5334 65.1765C28.6139 67.096 28.6139 70.2019 30.5334 72.1214C32.4507 74.041 35.5611 74.041 37.4784 72.1214C39.3979 70.2019 39.3979 67.096 37.4784 65.1765C35.5611 63.2547 32.453 63.2364 30.5334 65.1765Z" fill="#0021A5"/>
<path id="Vector_8" d="M68.4907 36.2627C69.6527 36.2627 70.5947 35.3207 70.5947 34.1587C70.5947 32.9967 69.6527 32.0547 68.4907 32.0547C67.3287 32.0547 66.3867 32.9967 66.3867 34.1587C66.3867 35.3207 67.3287 36.2627 68.4907 36.2627Z" fill="#0021A5"/>
</g>
</g>
</g>
</svg>
