<svg width="40" height="40" viewBox="0 0 40 40" fill="none" xmlns="http://www.w3.org/2000/svg">
<path d="M20 36C15.7565 36 11.6869 34.3143 8.68629 31.3137C5.68571 28.3131 4 24.2435 4 20C4 15.7565 5.68571 11.6869 8.68629 8.68629C11.6869 5.68571 15.7565 4 20 4C24.2435 4 28.3131 5.68571 31.3137 8.68629C34.3143 11.6869 36 15.7565 36 20C36 24.2435 34.3143 28.3131 31.3137 31.3137C28.3131 34.3143 24.2435 36 20 36ZM14.4 18.4C15.0365 18.4 15.647 18.1471 16.0971 17.6971C16.5471 17.247 16.8 16.6365 16.8 16C16.8 15.3635 16.5471 14.753 16.0971 14.3029C15.647 13.8529 15.0365 13.6 14.4 13.6C13.7635 13.6 13.153 13.8529 12.7029 14.3029C12.2529 14.753 12 15.3635 12 16C12 16.6365 12.2529 17.247 12.7029 17.6971C13.153 18.1471 13.7635 18.4 14.4 18.4ZM25.6 18.4C26.2365 18.4 26.847 18.1471 27.2971 17.6971C27.7471 17.247 28 16.6365 28 16C28 15.3635 27.7471 14.753 27.2971 14.3029C26.847 13.8529 26.2365 13.6 25.6 13.6C24.9635 13.6 24.353 13.8529 23.9029 14.3029C23.4529 14.753 23.2 15.3635 23.2 16C23.2 16.6365 23.4529 17.247 23.9029 17.6971C24.353 18.1471 24.9635 18.4 25.6 18.4ZM29.056 23.2H10.944C11.6036 25.0752 12.8291 26.6993 14.4513 27.8483C16.0734 28.9972 18.0122 29.6143 20 29.6143C21.9878 29.6143 23.9266 28.9972 25.5487 27.8483C27.1709 26.6993 28.3964 25.0752 29.056 23.2Z" fill="#31DE91"/>
</svg>
