<svg width="40" height="40" viewBox="0 0 40 40" fill="none" xmlns="http://www.w3.org/2000/svg">
<g clip-path="url(#clip0_10_67831)">
<path fill-rule="evenodd" clip-rule="evenodd" d="M19.9997 3.33337C29.2047 3.33337 36.6663 10.795 36.6663 20C36.6663 29.205 29.2047 36.6667 19.9997 36.6667C10.7947 36.6667 3.33301 29.205 3.33301 20C3.33301 10.795 10.7947 3.33337 19.9997 3.33337ZM19.9997 21.6667C17.9696 21.6645 16.009 22.4056 14.488 23.75C14.1565 24.0424 13.9547 24.4546 13.927 24.8957C13.8994 25.3369 14.0481 25.771 14.3405 26.1025C14.6329 26.4341 15.045 26.6358 15.4862 26.6635C15.9274 26.6912 16.3615 26.5424 16.693 26.25C17.605 25.4426 18.7816 24.9979 19.9997 25C21.2179 24.9971 22.3947 25.4419 23.3063 26.25C23.6379 26.5427 24.072 26.6916 24.5134 26.6641C24.9547 26.6366 25.3671 26.4349 25.6597 26.1034C25.9523 25.7719 26.1012 25.3377 26.0737 24.8963C26.0462 24.455 25.8445 24.0427 25.513 23.75C23.9916 22.4052 22.0303 21.6641 19.9997 21.6667ZM14.1663 13.3334C13.5033 13.3334 12.8674 13.5968 12.3986 14.0656C11.9297 14.5344 11.6663 15.1703 11.6663 15.8334C11.6663 16.4964 11.9297 17.1323 12.3986 17.6011C12.8674 18.07 13.5033 18.3334 14.1663 18.3334C14.8294 18.3334 15.4653 18.07 15.9341 17.6011C16.4029 17.1323 16.6663 16.4964 16.6663 15.8334C16.6663 15.1703 16.4029 14.5344 15.9341 14.0656C15.4653 13.5968 14.8294 13.3334 14.1663 13.3334ZM25.833 13.3334C25.17 13.3334 24.5341 13.5968 24.0652 14.0656C23.5964 14.5344 23.333 15.1703 23.333 15.8334C23.333 16.4964 23.5964 17.1323 24.0652 17.6011C24.5341 18.07 25.17 18.3334 25.833 18.3334C26.496 18.3334 27.1319 18.07 27.6008 17.6011C28.0696 17.1323 28.333 16.4964 28.333 15.8334C28.333 15.1703 28.0696 14.5344 27.6008 14.0656C27.1319 13.5968 26.496 13.3334 25.833 13.3334Z" fill="#E6332A"/>
</g>
<defs>
<clipPath id="clip0_10_67831">
<rect width="40" height="40" fill="white"/>
</clipPath>
</defs>
</svg>
