<svg width="40" height="40" viewBox="0 0 40 40" fill="none" xmlns="http://www.w3.org/2000/svg">
<path d="M38.2954 14.1718L34.8477 10.7242C34.5696 10.4498 34.1987 10.2895 33.8082 10.2751C33.4178 10.2606 33.0361 10.393 32.7384 10.6461C32.2788 11.0373 31.689 11.2415 31.0859 11.2184C30.4828 11.1952 29.9104 10.9463 29.4821 10.5211C29.0571 10.0928 28.8083 9.52061 28.7852 8.91769C28.762 8.31477 28.9661 7.72514 29.3571 7.26559C29.6102 6.9679 29.7426 6.58618 29.7281 6.19572C29.7136 5.80525 29.5534 5.43438 29.279 5.15622L25.8282 1.70465C25.5366 1.41359 25.1414 1.25012 24.7294 1.25012C24.3174 1.25012 23.9222 1.41359 23.6306 1.70465L18.1345 7.19997C17.7951 7.54051 17.5392 7.95497 17.3868 8.4109C17.3571 8.49856 17.3076 8.5782 17.2422 8.64364C17.1768 8.70909 17.0971 8.75857 17.0095 8.78825C16.5533 8.94068 16.1388 9.19688 15.7985 9.53669L1.70478 23.6304C1.41371 23.9221 1.25024 24.3172 1.25024 24.7293C1.25024 25.1413 1.41371 25.5365 1.70478 25.8281L5.15634 29.2757C5.4345 29.5502 5.80538 29.7104 6.19584 29.7249C6.58631 29.7393 6.96802 29.607 7.26571 29.3539C7.72422 28.9595 8.31482 28.753 8.91916 28.7757C9.52351 28.7984 10.097 29.0486 10.5246 29.4762C10.9522 29.9039 11.2025 30.4773 11.2252 31.0817C11.2479 31.686 11.0413 32.2766 10.647 32.7351C10.3939 33.0328 10.2615 33.4145 10.276 33.805C10.2904 34.1955 10.4507 34.5663 10.7251 34.8445L14.1727 38.2922C14.4644 38.5832 14.8596 38.7467 15.2716 38.7467C15.6836 38.7467 16.0788 38.5832 16.3704 38.2922L30.4642 24.1984C30.8038 23.8583 31.0599 23.444 31.2126 22.9882C31.2421 22.9003 31.2917 22.8204 31.3573 22.7548C31.4229 22.6892 31.5028 22.6397 31.5907 22.6101C32.0464 22.4577 32.4606 22.2018 32.8009 21.8625L38.2962 16.3664C38.5862 16.0748 38.7489 15.6802 38.7488 15.2689C38.7486 14.8577 38.5856 14.4632 38.2954 14.1718ZM20.454 11.8554C20.3379 11.9715 20.2001 12.0636 20.0484 12.1265C19.8968 12.1893 19.7342 12.2217 19.57 12.2217C19.4058 12.2217 19.2433 12.1893 19.0916 12.1265C18.9399 12.0636 18.8021 11.9715 18.686 11.8554L17.7868 10.9562C17.5581 10.7206 17.4313 10.4045 17.4337 10.0761C17.4362 9.74779 17.5678 9.4336 17.8 9.20147C18.0323 8.96933 18.3465 8.8379 18.6748 8.83558C19.0032 8.83325 19.3193 8.96021 19.5548 9.18903L20.454 10.0875C20.5701 10.2035 20.6622 10.3414 20.725 10.493C20.7879 10.6447 20.8202 10.8073 20.8202 10.9715C20.8202 11.1356 20.7879 11.2982 20.725 11.4499C20.6622 11.6015 20.5701 11.7394 20.454 11.8554ZM23.8915 15.2929C23.6571 15.5272 23.3393 15.6588 23.0079 15.6588C22.6765 15.6588 22.3587 15.5272 22.1243 15.2929L21.2649 14.4336C21.0305 14.1991 20.8988 13.8811 20.8988 13.5496C20.8988 13.218 21.0305 12.9 21.2649 12.6656C21.4994 12.4311 21.8174 12.2994 22.1489 12.2994C22.4805 12.2994 22.7985 12.4311 23.0329 12.6656L23.8923 13.525C24.0088 13.641 24.1012 13.779 24.1644 13.9308C24.2275 14.0827 24.26 14.2455 24.2601 14.41C24.2601 14.5744 24.2278 14.7373 24.1648 14.8892C24.1018 15.0411 24.0095 15.1791 23.8931 15.2953L23.8915 15.2929ZM27.329 18.7304C27.2129 18.8465 27.0751 18.9386 26.9234 19.0015C26.7718 19.0643 26.6092 19.0967 26.445 19.0967C26.2808 19.0967 26.1183 19.0643 25.9666 19.0015C25.8149 18.9386 25.6771 18.8465 25.561 18.7304L24.7017 17.8711C24.4729 17.6355 24.3461 17.3193 24.3486 16.991C24.3511 16.6626 24.4826 16.3484 24.7149 16.1163C24.9471 15.8842 25.2613 15.7527 25.5897 15.7504C25.918 15.7481 26.2341 15.8751 26.4696 16.1039L27.329 16.9632C27.4458 17.0791 27.5386 17.2169 27.6021 17.3688C27.6655 17.5206 27.6984 17.6834 27.6987 17.848C27.6991 18.0125 27.667 18.1755 27.6042 18.3276C27.5414 18.4797 27.4492 18.618 27.3329 18.7343L27.329 18.7304ZM30.8001 22.2101C30.684 22.3262 30.5462 22.4183 30.3945 22.4812C30.2428 22.544 30.0803 22.5763 29.9161 22.5763C29.7519 22.5763 29.5894 22.544 29.4377 22.4812C29.286 22.4183 29.1482 22.3262 29.0321 22.2101L28.1384 21.3117C28.0198 21.196 27.9255 21.0578 27.8608 20.9053C27.7961 20.7528 27.7624 20.5889 27.7616 20.4232C27.7608 20.2576 27.793 20.0934 27.8562 19.9403C27.9194 19.7871 28.0124 19.6481 28.1299 19.5312C28.2473 19.4144 28.3868 19.322 28.5402 19.2596C28.6937 19.1971 28.858 19.1657 29.0236 19.1673C29.1893 19.1689 29.353 19.2034 29.5052 19.2689C29.6574 19.3343 29.7951 19.4293 29.9102 19.5484L30.8048 20.4461C30.9208 20.5622 31.0129 20.7 31.0756 20.8517C31.1384 21.0034 31.1707 21.166 31.1706 21.3302C31.1705 21.4944 31.1381 21.6569 31.0752 21.8086C31.0123 21.9602 30.9202 22.098 30.804 22.214L30.8001 22.2101Z" fill="#7490FF"/>
</svg>
