<svg width="40" height="40" viewBox="0 0 40 40" fill="none" xmlns="http://www.w3.org/2000/svg">
<path d="M20.6564 7.42266C17.8751 7.41797 14.3907 8.29688 10.9532 10.0859C7.5212 11.875 4.80089 14.2188 3.20402 16.5078C1.60636 18.7891 1.17433 20.9141 1.96027 22.4297C2.74699 23.9375 4.73605 24.8047 7.52433 24.8047C10.3126 24.8125 13.797 23.9297 17.2267 22.1484C20.6642 20.3594 23.3829 18.0078 24.9767 15.7266C26.5782 13.4453 27.0001 11.3203 26.2189 9.80469C25.4298 8.29688 23.4454 7.42266 20.6564 7.42266ZM27.836 12.9141C27.5626 14.1094 26.9689 15.3359 26.1329 16.5312C24.3673 19.0547 21.4845 21.5156 17.8751 23.3906C14.2657 25.2734 10.6017 26.2188 7.52355 26.2188C6.07042 26.2188 4.72355 26 3.58839 25.5391L4.41574 27.1328C5.20324 28.6484 7.18683 29.5156 9.97667 29.5156C12.7657 29.5156 16.2501 28.6406 19.6798 26.8516C23.1173 25.0703 25.8361 22.7188 27.4298 20.4297C29.0235 18.1484 29.461 16.0234 28.672 14.5156L27.836 12.9141ZM30.086 14.2266C30.961 16.3125 30.2579 18.8516 28.586 21.2344C27.1095 23.3516 24.8517 25.4062 22.0548 27.125C22.922 27.2188 23.8282 27.2656 24.7501 27.2656C28.6173 27.2656 32.1173 26.4375 34.586 25.1484C37.0626 23.8594 38.422 22.1719 38.422 20.4688C38.422 18.7656 37.0626 17.0781 34.586 15.7891C33.3282 15.1328 31.797 14.5938 30.086 14.2266ZM38.422 23.9766C37.6251 24.9062 36.5314 25.7266 35.2423 26.3984C32.5079 27.8203 28.8204 28.6719 24.7501 28.6719C23.0939 28.6719 21.5001 28.5312 20.0079 28.2656C18.1954 29.1797 16.3751 29.8594 14.6251 30.3047C14.7189 30.3594 14.8126 30.4062 14.9142 30.4609C17.3829 31.75 20.8829 32.5781 24.7501 32.5781C28.6173 32.5781 32.1173 31.75 34.586 30.4609C37.0626 29.1719 38.422 27.4844 38.422 25.7812V23.9766Z" fill="#7490FF"/>
</svg>
