<svg width="40" height="40" viewBox="0 0 40 40" fill="none" xmlns="http://www.w3.org/2000/svg">
<g clip-path="url(#clip0_10_67588)">
<path d="M33.7961 33.8122C31.2924 38.5178 24.3538 40.2552 17.3115 37.5459C16.4701 37.2222 9.27088 34.2273 2.75682 31.3195C0.759455 30.3463 1.54665 27.1507 4.54891 27.4184C6.60624 27.6018 11.4583 29.5393 12.2489 28.8771C12.8593 28.3654 13.4095 25.0697 11.5872 19.0709L7.9211 7.01118C7.77853 6.46904 7.85186 5.89287 8.12571 5.40369C8.39955 4.91452 8.85258 4.55042 9.38964 4.38787C9.92669 4.22533 10.506 4.27701 11.0058 4.53203C11.5056 4.78706 11.887 5.2256 12.07 5.75551L15.2707 16.2793C15.5814 17.3061 16.04 17.7258 16.5939 17.5671C17.0877 17.4279 17.2153 17.1188 17.0119 16.1286L13.8913 3.30365C13.8237 3.02759 13.8114 2.74096 13.8549 2.46014C13.8983 2.17933 13.9968 1.90984 14.1447 1.66708C14.2925 1.42433 14.4868 1.21307 14.7165 1.04538C14.9461 0.877689 15.2067 0.756863 15.4831 0.689807C15.7597 0.621862 16.047 0.609139 16.3285 0.652371C16.61 0.695603 16.8803 0.793938 17.1237 0.941731C17.3671 1.08952 17.5789 1.28386 17.7469 1.5136C17.9149 1.74333 18.0358 2.00394 18.1028 2.28045L21.0711 14.4757C21.3339 15.5482 21.6616 16.1269 22.2796 15.9281C22.6507 15.8092 22.6747 15.2598 22.6221 14.7743L20.805 3.2249C20.7521 2.9402 20.7569 2.64781 20.8191 2.36501C20.8813 2.08222 20.9996 1.81475 21.167 1.57843C21.3345 1.3421 21.5477 1.1417 21.794 0.989076C22.0403 0.836452 22.3148 0.734699 22.6012 0.68983C22.8876 0.644961 23.1801 0.657886 23.4615 0.727841C23.7428 0.797796 24.0073 0.923363 24.2392 1.09712C24.4712 1.27088 24.6659 1.4893 24.8119 1.73948C24.9579 1.98966 25.0523 2.26652 25.0893 2.5537L26.7663 13.1977C27.0103 14.7617 27.3106 15.3442 27.9298 15.2475C28.5615 15.1519 28.5779 14.6413 28.5305 14.2146L27.5243 5.11654C27.495 4.61277 27.6604 4.11702 27.9864 3.73157C28.3124 3.34612 28.7741 3.10036 29.2763 3.04502C29.7785 2.98967 30.2828 3.12894 30.6853 3.43411C31.0878 3.73928 31.3576 4.18706 31.4392 4.68507L32.532 14.588L32.5339 14.5903L32.5337 14.5923C33.1552 20.2325 36.5598 28.6182 33.7961 33.8122Z" fill="#7490FF"/>
</g>
<defs>
<clipPath id="clip0_10_67588">
<rect width="40" height="40" fill="white"/>
</clipPath>
</defs>
</svg>
